<?xml version="1.0" encoding="UTF-8"?>
<!DOCTYPE svg PUBLIC "-//W3C//DTD SVG 1.1//EN" "http://www.w3.org/Graphics/SVG/1.1/DTD/svg11.dtd">
<!-- Creator: CorelDRAW 2018 (64 Bit) Mario Lozano -->
<svg xmlns="http://www.w3.org/2000/svg" xml:space="preserve" width="82.0178mm" height="37.0392mm" version="1.1" style="shape-rendering:geometricPrecision; text-rendering:geometricPrecision; image-rendering:optimizeQuality; fill-rule:evenodd; clip-rule:evenodd"
viewBox="0 0 8201.78 3703.92"
 xmlns:xlink="http://www.w3.org/1999/xlink">
 <defs>
  <style type="text/css">
   <![CDATA[
    .fil0{
      fill:#C8005C;
      -webkit-animation: peces_nadando 2.8s ease-in-out infinite;
           -moz-animation: peces_nadando 2.8s ease-in-out infinite;
             -o-animation: peces_nadando 2.8s ease-in-out infinite;
                animation: peces_nadando 2.8s ease-in-out infinite;
    }
    .fil1{
      fill:#FEA000;
      -webkit-animation: peces_nadando_plus 3.8s ease-in-out infinite;
           -moz-animation: peces_nadando_plus 3.8s ease-in-out infinite;
             -o-animation: peces_nadando_plus 3.8s ease-in-out infinite;
                animation: peces_nadando_plus 3.8s ease-in-out infinite;
    }
    @-webkit-keyframes peces_nadando {
      0% {
        -webkit-transform: translateX(-8000px);
           -moz-transform: translateX(-8000px);
            -ms-transform: translateX(-8000px);
             -o-transform: translateX(-8000px);
                transform: translateX(-8000px);
      }
      100% {
        -webkit-transform: translateX(8000px);
           -moz-transform: translateX(8000px);
            -ms-transform: translateX(8000px);
             -o-transform: translateX(8000px);
                transform: translateX(8000px);
      }
    }
    @-webkit-keyframes peces_nadando_plus {
      0% {
        -webkit-transform: translateX(-8000px);
           -moz-transform: translateX(-8000px);
            -ms-transform: translateX(-8000px);
             -o-transform: translateX(-8000px);
                transform: translateX(-8000px);
      }
      100% {
        -webkit-transform: translateX(8000px);
           -moz-transform: translateX(8000px);
            -ms-transform: translateX(8000px);
             -o-transform: translateX(8000px);
                transform: translateX(8000px);
      }
    }
   ]]>
  </style>
 </defs>
 <g id="peces">
  <metadata id="CorelCorpID_0Corel-Layer"/>
  <path class="fil0" d="M2432.67 934.33c-169.48,0 -227.02,-63.14 -402.23,-67.05 55.36,75.56 179.98,154.46 268.16,201.13 -3.47,155.58 -55.01,224.09 -67.04,368.71 33.89,-24.82 273.86,-293.66 301.68,-335.19 479.33,39.89 680.93,198.96 1326.3,-215.61 226.23,-145.33 173.91,-121.91 182.09,-220.16 -392.48,-91.43 -568.72,-270.02 -1151.24,21.96 -161.76,81.08 -388.22,246.21 -457.72,246.21z"/>
  <path class="fil0" d="M6488.56 2844.95c-185.09,0 -224.18,-66.89 -368.71,-100.56l193.38 208.85c-22.05,120.16 -63.02,132.54 -92.82,260.43 119.67,-31.96 58.25,-19.14 145.29,-89.35 308.17,-248.59 140.34,-11.21 759.74,-11.21 348.96,0 595.33,-193.72 770.96,-234.64 -81.09,-303.68 -673.72,-286.92 -1035.49,-163.97 -95.69,32.53 -281.35,130.45 -372.35,130.45z"/>
  <path class="fil0" d="M52.77 2811.43l193.39 208.86c-3.02,121.44 -25.79,100.33 -25.79,260.42 98.89,-113.77 83.88,-227.69 267.16,-235.97 220.69,-9.96 50.49,77.33 471.56,2.82 242.78,-42.97 558.14,-204.48 669.12,-370.21 -350.5,-185.45 -727.5,-105.96 -1050.09,89.6 -387.79,235.1 -175.75,125.93 -525.35,44.48z"/>
  <path class="fil1" d="M1862.84 2107.52c60.12,82.05 45.63,72.14 167.6,100.55l0 234.65c102.7,-75.26 83.59,-159.11 208.79,-193.46 0.2,-0.05 787.37,35.52 897.37,-376.39 -257.46,-59.97 -397.47,-156.84 -791.62,113.44 -330.88,226.9 -84.06,121.21 -482.14,121.21z"/>
  <path class="fil0" d="M3907.55 2275.12c-24.24,104.02 -42.8,97.09 -67.04,201.11 422.32,-282.79 218.77,-33.51 837.99,-33.51 125.2,0 380.71,-91.59 469.27,-134.08 -261.06,-389.87 -1007.06,-100.57 -1106.14,-100.57 -55.5,0 -188.28,-76.02 -234.64,-100.55 32.74,122.61 35.36,70.24 100.56,167.6z"/>
  <path class="fil1" d="M5248.34 1068.41c26.47,99.16 13.64,54.33 67.03,134.07 -44.63,66.67 -61.01,92.87 -100.55,167.6 133.68,-31.14 170.22,-106.12 287,-85.92 41.04,7.1 221.53,84.34 296.1,106.18 349.1,102.28 416.76,5.32 724.17,-20.26 -231.14,-345.17 -673.94,-265.75 -964.29,-221.92 -230.7,34.84 -87.41,-28.03 -309.46,-79.75z"/>
  <path class="fil1" d="M3572.35 2744.39c-115.56,0 -129.79,-24.79 -234.64,-33.52l134.08 100.56c-12,144.12 4.75,60.4 -67.04,167.6 143.32,-33.39 151.59,-98.66 288.84,-87.77 154.87,12.29 182.97,54.25 381.55,54.25 235.26,0 313.86,-84.83 502.8,-100.56 -103.55,-387.79 -878.64,-100.56 -1005.59,-100.56z"/>
  <polygon class="fil1" points="5248.34,1068.41 5248.34,1034.88 5209.23,1062.82 "/>
 </g>
</svg>
