<?xml version="1.0" encoding="utf-8"?>
<!-- Generator: Adobe Illustrator 21.0.0, SVG Export Plug-In . SVG Version: 6.00 Build 0)  -->
<svg version="1.1" id="Capa_1" xmlns="http://www.w3.org/2000/svg" xmlns:xlink="http://www.w3.org/1999/xlink" x="0px" y="0px"
	 viewBox="0 0 41 36.2" style="enable-background:new 0 0 41 36.2;" xml:space="preserve">
<style type="text/css">
	.st0{fill:#1A1A1A;}
	.st1{fill:#1D1E1F;}
	.st2{display:none;}
</style>
<path class="st0" d="M20.5,0.9C9.9,0.9,1.2,9.5,1.2,20.2c0,6.1,2.9,11.6,7.3,15.1c3.6-2,6.4-3.9,6.4-3.9s0.5-0.3,0.7-0.2
	c0.1,0,0.1,0,0.2-0.1c0.4-1.3,0.2-3.3,0.2-3.3s-1.5-1.5-1.7-4.6c-0.6,0.2-0.8-0.4-0.8-0.4s-1.1-2.3-0.8-4.2c0.2-1.1,1.1-0.2,1.1-0.2
	s-0.4-5.1,0-6.3l0.4,0.4c0,0,0-1.7,1.1-3.2c-0.2,0.6,0,1.3,0,1.3s0.6-1.5,1.1-1.9c0,0.4,0.2,1.1,0.2,1.1s0.2-1.9,0.8-2.1
	c-0.2,0.6,0,0.8,0,0.8s1.1-2.3,1.3-2.5c0,0,0,0,0.2,0.2c0.2,0.2,0.4-0.4,0.4-0.4S20,6,20.6,7.1c0.2,0.2,0-0.8,0-0.8l1.3,1.3
	c0,0,0.2-0.2,0-0.4C23,7.3,24.2,9,24.2,9s0-0.8-0.2-1.1c1.9,1.1,2.7,2.7,2.7,2.7L27,10c0,0,0.6,1.1,0.4,2.1c0.6,0.6,0.4,5.9,0.4,5.9
	s0.6-0.2,0.8,0.4c0.2,1.1-0.8,4.2-0.8,4.2S27.6,23.2,27,23c-0.2,3.6-1.7,4.6-1.7,4.6s0.2,2.7,0.2,3.2c0.2,0.3,0.3,0.2,0.4,0.3
	c0.8,0.4,4.6,2.4,7,3.7c0,0,0,0,0,0.1c4.3-3.5,7-8.9,7-14.8C39.8,9.5,31.2,0.9,20.5,0.9z"/>
<polygon class="st1" points="-1113.1,8741.4 -1115.2,8737.9 -1117.2,8734.4 -1113.1,8734.4 -1109.1,8734.4 -1111.1,8737.9 "/>
<polygon class="st1" points="471.5,8741.4 469.5,8737.9 467.5,8734.4 471.5,8734.4 475.5,8734.4 473.5,8737.9 "/>
<g id="Guias" class="st2">
</g>
</svg>
